<?xml version="1.0" encoding="UTF-8"?>
<svg version="1.1" xmlns="http://www.w3.org/2000/svg" width="593" height="421">
<path d="M0 0 C2.84415659 1.82587831 5.44058858 3.79454973 8 6 C8.60585938 6.51175781 9.21171875 7.02351563 9.8359375 7.55078125 C14.97739101 12.2544254 18.05129509 17.73623594 21 24 C21.51433594 25.06154297 21.51433594 25.06154297 22.0390625 26.14453125 C27.20086967 38.75960204 23.94550337 53.34982691 19.0078125 65.42675781 C15.25064212 74.33671416 11.34325736 82.91872507 6 91 C6.969375 90.690625 7.93875 90.38125 8.9375 90.0625 C17.16324472 87.74032157 25.57856227 87.86791565 34.0625 87.9375 C35.11888672 87.94201172 36.17527344 87.94652344 37.26367188 87.95117188 C39.84250908 87.96284082 42.42122294 87.97921115 45 88 C44.83991455 87.266604 44.6798291 86.53320801 44.51489258 85.77758789 C42.38620713 74.29439475 43.01118024 61.5837578 48 51 C48.42410156 50.07058594 48.84820312 49.14117187 49.28515625 48.18359375 C52.39744638 41.95034416 56.3052242 37.08707184 61.14453125 32.09375 C63.20210994 30.04789237 63.20210994 30.04789237 64 27 C63.34 26.67 62.68 26.34 62 26 C62.67997395 21.81279199 63.29052747 18.0914962 65.625 14.5 C68.9529703 12.39812402 72.12691891 11.80634595 76 12 C79.221935 13.1336438 81.2132039 14.0343866 83.375 16.6875 C84.31544849 20.1671594 84.57077771 23.4555409 84 27 C82.20363006 30.06048212 80.72196245 31.57072503 77.6875 33.375 C75 34 75 34 71.75 33 C68.0155638 32.61291672 68.0155638 32.61291672 65.76171875 34.765625 C54.6689579 46.62276097 49.23787583 59.87933768 49 76 C49.19631027 80.35078346 49.53932002 84.66960823 50 89 C52.64 89.33 55.28 89.66 58 90 C58.09474609 89.195625 58.09474609 89.195625 58.19140625 88.375 C60.49977812 73.60142005 67.67754861 59.2273516 79.75 50.1875 C85.55850232 46.38409988 92.36147187 42.80112748 99.26171875 41.609375 C101.1690636 41.16719153 101.1690636 41.16719153 101.87109375 39.2578125 C102.05800781 38.55398437 102.24492187 37.85015625 102.4375 37.125 C103.39810265 34.3089175 103.91077014 33.08922986 106.0625 30.9375 C110.5323908 29.51093911 114.50653234 29.65120195 119 31 C122.17891994 34.10323137 123.22049811 36.72200007 123.5 41.0625 C122.95015913 45.39249689 122.09137898 46.99954393 119 50 C116.47524538 51.26237731 114.68799534 51.09856404 111.875 51.0625 C110.96492187 51.05347656 110.05484375 51.04445312 109.1171875 51.03515625 C108.41851562 51.02355469 107.71984375 51.01195312 107 51 C107 50.34 107 49.68 107 49 C104.02807134 47.2486849 102.3730072 46.73340745 99 47.5 C87.89678724 50.39012787 78.74404522 55.93909549 72.3203125 65.5 C67.84566567 73.15810203 64 82.03578623 64 91 C65.02996094 91.32871094 66.05992187 91.65742188 67.12109375 91.99609375 C82.06326426 96.92192837 96.29761523 103.24919323 108 114 C108.82757813 114.73605469 109.65515625 115.47210938 110.5078125 116.23046875 C126.96646546 131.65731013 137.41538814 154.81659037 138.203125 177.33984375 C138.68281315 205.37731255 130.45866273 229.89114785 110.9375 250.5 C102.04353251 259.21096405 91.54415617 265.37890177 80 270 C78.7315625 270.53560547 78.7315625 270.53560547 77.4375 271.08203125 C63.78208644 276.50761967 49.53076926 277.51227742 35 278 C35.3196875 278.61488281 35.639375 279.22976563 35.96875 279.86328125 C37 282 37 282 37.5 284.1875 C37.665 284.785625 37.83 285.38375 38 286 C38.66 286.33 39.32 286.66 40 287 C38.7260411 289.03833424 37.38938077 291.03852126 36 293 C35.34 293 34.68 293 34 293 C33.67 293.66 33.34 294.32 33 295 C29.55672959 291.95403002 27.94337402 289.12934091 26.25 284.875 C25.82203125 283.82054687 25.3940625 282.76609375 24.953125 281.6796875 C24 279 24 279 24 277 C22.35 277.33 20.7 277.66 19 278 C19 277.34 19 276.68 19 276 C18.34 276 17.68 276 17 276 C17.16757812 276.64066406 17.33515625 277.28132813 17.5078125 277.94140625 C18.83991111 283.59860986 19.74758721 287.72463255 17 293 C13.375 294.4375 13.375 294.4375 10 295 C7.28513066 291.02389214 7.77559247 286.86098023 7.875 282.25 C7.88402344 281.45722656 7.89304687 280.66445313 7.90234375 279.84765625 C7.92582988 277.89830719 7.96169863 275.94911425 8 274 C7.01 274.33 6.02 274.66 5 275 C5 274.34 5 273.68 5 273 C3.88625 272.855625 2.7725 272.71125 1.625 272.5625 C-2 272 -2 272 -4 271 C-4.18175781 272.17755859 -4.18175781 272.17755859 -4.3671875 273.37890625 C-6.88664422 289.17396184 -6.88664422 289.17396184 -9.9375 291.4375 C-12 292 -12 292 -15 292 C-16.60459768 285.18045986 -15.18099056 280.42164388 -12.91015625 273.85546875 C-11.8481561 271.02311635 -11.8481561 271.02311635 -12 268 C-13.32 267.67 -14.64 267.34 -16 267 C-17.1254191 268.60387267 -18.25031972 270.20810916 -19.375 271.8125 C-20.31472656 273.15248047 -20.31472656 273.15248047 -21.2734375 274.51953125 C-22.53550239 276.33267878 -23.77458808 278.16188211 -25 280 C-27.5 280.3125 -27.5 280.3125 -30 280 C-32 278 -32 278 -32.375 275.70703125 C-31.87382861 272.08920029 -30.35380318 270.44586311 -28 267.6875 C-26.88625 266.36298828 -26.88625 266.36298828 -25.75 265.01171875 C-24.88375 264.01591797 -24.88375 264.01591797 -24 263 C-26.55858165 261.04402278 -29.14833901 259.22295505 -31.87109375 257.50390625 C-40.68592972 251.84788128 -48.70578028 246.0158429 -56.203125 238.69140625 C-58.14563169 236.82215051 -60.03417396 235.12120541 -62.1171875 233.43359375 C-74.90170009 222.64124775 -82.66676563 206.7002402 -86.84375 190.78515625 C-88.23807374 187.42653183 -89.48933239 186.61703756 -92.625 184.875 C-95.1015625 183.4921875 -95.1015625 183.4921875 -97 182 C-97 178 -97 178 -94.875 175.5625 C-92 173 -92 173 -89 170.9375 C-85.17843647 167.83735408 -83.99569244 163.59565322 -82.265625 159.1171875 C-75.39742724 142.20107079 -61.2130903 128.889779 -47 118 C-47.60247559 117.96036133 -48.20495117 117.92072266 -48.82568359 117.87988281 C-90.61265777 115.00896145 -90.61265777 115.00896145 -103.875 101.3125 C-112.54864281 91.03780842 -114.95147146 80.04918144 -114.21777344 66.94873047 C-113.48071077 60.35317642 -109.90449472 55.54427513 -105.1875 51.125 C-95.26840825 43.20091354 -84.57752347 40.87936112 -72 42 C-66.8500496 43.19301786 -61.74296224 44.62851888 -57 47 C-57.03480469 46.20078125 -57.06960937 45.4015625 -57.10546875 44.578125 C-57.50226105 28.47969452 -53.01260137 16.76786117 -42.0703125 4.97265625 C-38.98770001 2.03545001 -35.79425728 -0.09164574 -32 -2 C-31.09701172 -2.47759766 -31.09701172 -2.47759766 -30.17578125 -2.96484375 C-19.95224685 -7.61580175 -9.3283121 -5.54735305 0 0 Z " fill="#F6BE24" transform="translate(278,48)"/>
<path d="M0 0 C2.84415659 1.82587831 5.44058858 3.79454973 8 6 C8.60585938 6.51175781 9.21171875 7.02351563 9.8359375 7.55078125 C14.97739101 12.2544254 18.05129509 17.73623594 21 24 C21.51433594 25.06154297 21.51433594 25.06154297 22.0390625 26.14453125 C27.20086967 38.75960204 23.94550337 53.34982691 19.0078125 65.42675781 C15.25064212 74.33671416 11.34325736 82.91872507 6 91 C6.66 91.33 7.32 91.66 8 92 C5.75023648 92.64665663 3.50018033 93.29229523 1.25 93.9375 C-0.00296875 94.29714844 -1.2559375 94.65679687 -2.546875 95.02734375 C-5.02561719 95.72554149 -7.49660162 96.39943726 -10 97 C-10.15855469 97.680625 -10.31710937 98.36125 -10.48046875 99.0625 C-11.73378219 104.26963651 -13.09499758 109.38584808 -14.79450989 114.46739197 C-17.73752266 123.35956617 -19.53475101 132.17139439 -20.8125 141.4375 C-20.9708432 142.54878769 -20.9708432 142.54878769 -21.13238525 143.68252563 C-23.43573793 160.14057792 -23.65759187 176.40434533 -23 193 C-22.96773315 193.98616302 -22.96773315 193.98616302 -22.93481445 194.99224854 C-22.60342369 204.64066148 -21.26302256 213.64935702 -18.75 223 C-18.43788574 224.20245361 -18.12577148 225.40490723 -17.80419922 226.64379883 C-15.12217519 241.20515837 -15.12217519 241.20515837 -9 254 C-8.95936168 255.66617115 -8.957279 257.33388095 -9 259 C-13.6141186 258.44050358 -17.12348718 257.18278109 -21.25 255.0625 C-22.28640625 254.53785156 -23.3228125 254.01320313 -24.390625 253.47265625 C-27.34261189 251.8066397 -28.69736421 250.85358812 -29.83789062 247.63671875 C-30.10794922 246.66347656 -30.37800781 245.69023437 -30.65625 244.6875 C-30.95660156 243.61113281 -31.25695312 242.53476562 -31.56640625 241.42578125 C-31.87449219 240.29527344 -32.18257813 239.16476562 -32.5 238 C-32.80808594 236.90042969 -33.11617188 235.80085937 -33.43359375 234.66796875 C-35.03665948 228.86803565 -36.47664572 223.0857896 -37.58178711 217.16992188 C-38.01370156 214.92890864 -38.5332849 212.7198636 -39.0625 210.5 C-45.87879753 179.59436274 -43.80592323 135.22453224 -29 107 C-29.80824219 107.54269531 -30.61648437 108.08539063 -31.44921875 108.64453125 C-32.51785156 109.35996094 -33.58648437 110.07539063 -34.6875 110.8125 C-35.74324219 111.52019531 -36.79898438 112.22789062 -37.88671875 112.95703125 C-38.91410156 113.63121094 -39.94148438 114.30539063 -41 115 C-41.72445312 115.59296875 -42.44890625 116.1859375 -43.1953125 116.796875 C-47.80198989 118.77299845 -52.28430958 117.93811456 -57.1875 117.4375 C-58.78694458 117.28522949 -58.78694458 117.28522949 -60.41870117 117.12988281 C-77.92755671 115.32092716 -94.11956322 112.86867152 -106.0546875 98.73046875 C-113.38021835 88.44824774 -115.38232935 77.36967807 -114 65 C-111.70434126 56.68628259 -106.18487222 51.15643939 -98.953125 46.75390625 C-88.0002597 40.95907635 -76.57410497 40.33258995 -64.75 43.9375 C-62.07594786 44.84732993 -59.52466029 45.73766985 -57 47 C-57.03480469 46.20078125 -57.06960937 45.4015625 -57.10546875 44.578125 C-57.50226105 28.47969452 -53.01260137 16.76786117 -42.0703125 4.97265625 C-38.98770001 2.03545001 -35.79425728 -0.09164574 -32 -2 C-31.09701172 -2.47759766 -31.09701172 -2.47759766 -30.17578125 -2.96484375 C-19.95224685 -7.61580175 -9.3283121 -5.54735305 0 0 Z " fill="#FAC8C8" transform="translate(278,48)"/>
<path d="M0 0 C-1.66666667 5 -3.33333333 10 -5 15 C-5.33902344 16.0209375 -5.67804688 17.041875 -6.02734375 18.09375 C-6.61411264 19.84698717 -7.20824052 21.59781967 -7.81640625 23.34375 C-9.94080873 29.48338438 -11.61540276 35.65175226 -13 42 C-13.25813477 43.11665039 -13.25813477 43.11665039 -13.52148438 44.25585938 C-16.62774066 58.08687419 -17.40318678 71.69286506 -17.4375 85.8125 C-17.44648819 87.0278392 -17.44648819 87.0278392 -17.45565796 88.26773071 C-17.53413002 104.20643461 -15.6148846 119.76529253 -11.25 135.125 C-10.99395996 136.04039551 -10.73791992 136.95579102 -10.47412109 137.89892578 C-6.64917506 151.139833 -1.00280307 163.38800994 5.30078125 175.609375 C6.68764757 178.37673125 7.91190988 181.10579076 9 184 C7.02 184 5.04 184 3 184 C3.495 192.91 3.495 192.91 4 202 C0.535 202.99 0.535 202.99 -3 204 C-5.71486934 200.02389214 -5.22440753 195.86098023 -5.125 191.25 C-5.11597656 190.45722656 -5.10695313 189.66445313 -5.09765625 188.84765625 C-5.07417012 186.89830719 -5.03830137 184.94911425 -5 183 C-5.99 183.33 -6.98 183.66 -8 184 C-8 183.34 -8 182.68 -8 182 C-9.670625 181.7834375 -9.670625 181.7834375 -11.375 181.5625 C-15 181 -15 181 -17 180 C-17.18175781 181.17755859 -17.18175781 181.17755859 -17.3671875 182.37890625 C-19.88664422 198.17396184 -19.88664422 198.17396184 -22.9375 200.4375 C-25 201 -25 201 -28 201 C-29.60459768 194.18045986 -28.18099056 189.42164388 -25.91015625 182.85546875 C-24.8481561 180.02311635 -24.8481561 180.02311635 -25 177 C-26.32 176.67 -27.64 176.34 -29 176 C-30.1254191 177.60387267 -31.25031972 179.20810916 -32.375 180.8125 C-33.00148438 181.70582031 -33.62796875 182.59914063 -34.2734375 183.51953125 C-35.53550239 185.33267878 -36.77458808 187.16188211 -38 189 C-40.5 189.3125 -40.5 189.3125 -43 189 C-45 187 -45 187 -45.375 184.70703125 C-44.87382861 181.08920029 -43.35380318 179.44586311 -41 176.6875 C-40.2575 175.80449219 -39.515 174.92148437 -38.75 174.01171875 C-38.1725 173.34785156 -37.595 172.68398438 -37 172 C-39.55858165 170.04402278 -42.14833901 168.22295505 -44.87109375 166.50390625 C-53.68592972 160.84788128 -61.70578028 155.0158429 -69.203125 147.69140625 C-71.14563169 145.82215051 -73.03417396 144.12120541 -75.1171875 142.43359375 C-87.90170009 131.64124775 -95.66676563 115.7002402 -99.84375 99.78515625 C-101.23807374 96.42653183 -102.48933239 95.61703756 -105.625 93.875 C-108.1015625 92.4921875 -108.1015625 92.4921875 -110 91 C-110 87 -110 87 -107.875 84.5625 C-105 82 -105 82 -102 79.9375 C-98.17843647 76.83735408 -96.99569244 72.59565322 -95.265625 68.1171875 C-86.0326908 45.37681253 -64.25749499 28.68775027 -44 16 C-43.34 16 -42.68 16 -42 16 C-42.41539832 17.5420089 -42.83243832 19.08357551 -43.25 20.625 C-43.66185547 22.15640625 -43.66185547 22.15640625 -44.08203125 23.71875 C-44.66782986 25.81266842 -45.28703411 27.89771986 -45.94921875 29.96875 C-51.73797429 48.45615899 -53.37772942 66.92709861 -53.375 86.1875 C-53.37681274 87.01748505 -53.37862549 87.84747009 -53.38049316 88.7026062 C-53.3779434 99.00886943 -52.6954527 108.82153094 -51 119 C-50.72335125 121.12425073 -50.45177868 123.24917487 -50.1875 125.375 C-49.18722448 131.88472957 -47.28872992 137.9566587 -45.20703125 144.18359375 C-44.11807028 147.48175444 -43.42434353 150.77908336 -42.75 154.1875 C-41.67376501 158.20384064 -40.54429574 159.84037883 -36.9375 161.9375 C-35.31134764 162.6703384 -33.66332427 163.35596896 -32 164 C-31.071875 164.38929688 -30.14375 164.77859375 -29.1875 165.1796875 C-26.80497702 166.16112452 -24.413517 167.09808029 -22 168 C-22.56197826 166.16650667 -23.12463031 164.33321986 -23.6875 162.5 C-24.05359375 161.30375 -24.4196875 160.1075 -24.796875 158.875 C-25.57618932 156.34542238 -26.38195252 153.82934032 -27.203125 151.3125 C-29.65850214 143.77733547 -31.82971786 136.18955395 -33.75 128.5 C-33.96068115 127.69498047 -34.1713623 126.88996094 -34.38842773 126.06054688 C-36.30616573 118.12247858 -36.67753671 110.12573605 -37 102 C-37.05091797 100.74300293 -37.10183594 99.48600586 -37.15429688 98.19091797 C-37.66735766 82.07786564 -37.08673828 66.39860849 -34.8125 50.4375 C-34.71434998 49.72572601 -34.61619995 49.01395203 -34.51507568 48.28060913 C-33.21475262 39.06270099 -31.10248515 30.40022973 -28.14135742 21.57519531 C-27.05560982 18.17419255 -26.24931772 14.80041546 -25.5 11.3125 C-24.250948 7.49796777 -23.50262477 6.30726995 -20.03515625 4.1875 C-13.5310017 1.61217671 -7.02182071 -0.20062345 0 0 Z " fill="#572201" transform="translate(291,139)"/>
<path d="M0 0 C0 0.99 0 1.98 0 3 C0.61641357 3.08217773 1.23282715 3.16435547 1.86791992 3.24902344 C4 4 4 4 5.16918945 5.74316406 C5.48073975 6.49307617 5.79229004 7.24298828 6.11328125 8.015625 C6.470271 8.84819824 6.82726074 9.68077148 7.19506836 10.53857422 C7.5638208 11.43334473 7.93257324 12.32811523 8.3125 13.25 C9.10870743 15.09256307 9.908193 16.93371302 10.7109375 18.7734375 C11.10120117 19.67288086 11.49146484 20.57232422 11.89355469 21.49902344 C16.73723956 32.44754679 23.18601857 44.27489659 31.796875 52.7734375 C33 54 33 54 33 56 C33.66 56 34.32 56 35 56 C33.67920039 59.96239882 32.11316932 60.32799412 28.5 62.3125 C27.4996875 62.86550781 26.499375 63.41851562 25.46875 63.98828125 C24.92033447 64.28766602 24.37191895 64.58705078 23.80688477 64.89550781 C21.91364014 66.00434596 21.91364014 66.00434596 19.98803711 67.58105469 C13.70755651 72.40169466 9.27678131 72.63324007 1.5625 71.625 C0.51425049 71.50995117 -0.53399902 71.39490234 -1.61401367 71.27636719 C-19.02736273 69.22383811 -35.16276325 66.8174973 -47.0546875 52.73046875 C-54.38021835 42.44824774 -56.38232935 31.36967807 -55 19 C-52.70434126 10.68628259 -47.18487222 5.15643939 -39.953125 0.75390625 C-26.73257584 -6.24068662 -13.70307899 -5.09882009 0 0 Z " fill="#FAC8C8" transform="translate(219,94)"/>
<path d="M0 0 C1.54851003 3.09702007 0.087378 5.81914174 -0.8125 9 C-2.88327982 16.70085116 -3.8699028 24.30769571 -4.60546875 32.234375 C-5 36 -5 36 -5.51196289 37.83056641 C-11.25564035 63.3624913 -5.75043222 100.96949995 4.08764648 124.61401367 C5 127 5 127 5 130 C1.0213977 128.37238997 -1.80309944 125.60077598 -4.875 122.6875 C-5.89193052 121.73168934 -6.91015826 120.77725695 -7.9296875 119.82421875 C-8.68693115 119.11628174 -8.68693115 119.11628174 -9.45947266 118.39404297 C-10.98140115 117.01683034 -12.54634972 115.71809909 -14.140625 114.42578125 C-26.89997108 103.60125404 -34.66500336 87.70695478 -38.84375 71.78515625 C-40.23807374 68.42653183 -41.48933239 67.61703756 -44.625 65.875 C-47.1015625 64.4921875 -47.1015625 64.4921875 -49 63 C-49 59 -49 59 -46.875 56.5625 C-44 54 -44 54 -41 51.9375 C-37.17843647 48.83735408 -35.99569244 44.59565322 -34.265625 40.1171875 C-27.622562 23.75556937 -14.00644208 10.29788058 0 0 Z " fill="#F4BC23" transform="translate(230,167)"/>
<path d="M0 0 C-0.39832031 1.14855469 -0.79664063 2.29710937 -1.20703125 3.48046875 C-1.74252271 5.04936479 -2.27765958 6.6183819 -2.8125 8.1875 C-3.07353516 8.93708984 -3.33457031 9.68667969 -3.60351562 10.45898438 C-10.97151195 32.19912168 -13.40923031 55.51495376 -13.3125 78.375 C-13.30867813 79.37847473 -13.30867813 79.37847473 -13.30477905 80.40222168 C-13.27492216 84.93795182 -13.15703719 89.46705006 -13 94 C-12.97955627 94.66277954 -12.95911255 95.32555908 -12.93804932 96.00842285 C-12.61332592 105.65047734 -11.26101665 114.65682074 -8.75 124 C-8.28182861 125.80368042 -8.28182861 125.80368042 -7.80419922 127.64379883 C-5.12217519 142.20515837 -5.12217519 142.20515837 1 155 C1.04063832 156.66617115 1.042721 158.33388095 1 160 C-3.6141186 159.44050358 -7.12348718 158.18278109 -11.25 156.0625 C-12.28640625 155.53785156 -13.3228125 155.01320313 -14.390625 154.47265625 C-17.34261189 152.8066397 -18.69736421 151.85358812 -19.83789062 148.63671875 C-20.24297852 147.17685547 -20.24297852 147.17685547 -20.65625 145.6875 C-20.95660156 144.61113281 -21.25695312 143.53476562 -21.56640625 142.42578125 C-21.87449219 141.29527344 -22.18257812 140.16476562 -22.5 139 C-22.80808594 137.90042969 -23.11617187 136.80085937 -23.43359375 135.66796875 C-25.03665948 129.86803565 -26.47664572 124.0857896 -27.58178711 118.16992188 C-28.01370156 115.92890864 -28.5332849 113.7198636 -29.0625 111.5 C-35.95709133 80.23937243 -31.46931728 43.95993524 -21.63208008 13.96142578 C-21.12656335 12.39274236 -20.70668286 10.7965617 -20.31640625 9.1953125 C-18.16851957 5.61337684 -14.75588706 4.35962506 -11.0625 2.625 C-10.33353516 2.25761719 -9.60457031 1.89023438 -8.85351562 1.51171875 C-3.40516015 -1.13505338 -3.40516015 -1.13505338 0 0 Z " fill="#F2B920" transform="translate(268,147)"/>
<path d="M0 0 C-0.41539832 1.5420089 -0.83243832 3.08357551 -1.25 4.625 C-1.52457031 5.6459375 -1.79914063 6.666875 -2.08203125 7.71875 C-2.66782986 9.81266842 -3.28703411 11.89771986 -3.94921875 13.96875 C-9.73797429 32.45615899 -11.37772942 50.92709861 -11.375 70.1875 C-11.37681274 71.01748505 -11.37862549 71.84747009 -11.38049316 72.7026062 C-11.3779434 83.00886943 -10.6954527 92.82153094 -9 103 C-8.72335125 105.12425073 -8.45177868 107.24917487 -8.1875 109.375 C-7.18722448 115.88472957 -5.28872992 121.9566587 -3.20703125 128.18359375 C-2.11807028 131.48175444 -1.42434353 134.77908336 -0.75 138.1875 C0.32623499 142.20384064 1.45570426 143.84037883 5.0625 145.9375 C6.68865236 146.6703384 8.33667573 147.35596896 10 148 C10.928125 148.38929688 11.85625 148.77859375 12.8125 149.1796875 C15.19502298 150.16112452 17.586483 151.09808029 20 152 C20.33 151.34 20.66 150.68 21 150 C22.98 154.62 24.96 159.24 27 164 C26.34 164 25.68 164 25 164 C24.81824219 165.17755859 24.81824219 165.17755859 24.6328125 166.37890625 C22.11335578 182.17396184 22.11335578 182.17396184 19.0625 184.4375 C17 185 17 185 14 185 C12.39540232 178.18045986 13.81900944 173.42164388 16.08984375 166.85546875 C17.1518439 164.02311635 17.1518439 164.02311635 17 161 C15.68 160.67 14.36 160.34 13 160 C11.8745809 161.60387267 10.74968028 163.20810916 9.625 164.8125 C8.99851562 165.70582031 8.37203125 166.59914063 7.7265625 167.51953125 C6.46449761 169.33267878 5.22541192 171.16188211 4 173 C1.5 173.3125 1.5 173.3125 -1 173 C-3 171 -3 171 -3.375 168.70703125 C-2.87382861 165.08920029 -1.35380318 163.44586311 1 160.6875 C1.7425 159.80449219 2.485 158.92148437 3.25 158.01171875 C3.8275 157.34785156 4.405 156.68398438 5 156 C2.59953101 154.03819539 0.32652955 152.6609844 -2.4609375 151.2578125 C-8.71407655 147.9722918 -13.62173673 144.92241138 -16.2109375 138.09375 C-17.56036447 133.70278253 -18.56391255 129.25955779 -19.43823242 124.75195312 C-20.03563547 121.8254311 -20.77441852 118.95844166 -21.53515625 116.0703125 C-25.56064371 100.1191587 -26.28488672 83.57393832 -26.3125 67.1875 C-26.31789795 65.87233398 -26.3232959 64.55716797 -26.32885742 63.20214844 C-26.26862548 54.94984874 -25.4009081 47.12162278 -24 39 C-23.82309738 37.63702178 -23.65675252 36.2725666 -23.5078125 34.90625 C-23.09723083 31.25291102 -22.56705306 27.63220476 -22 24 C-21.85046875 22.86046875 -21.7009375 21.7209375 -21.546875 20.546875 C-19.91688537 12.5485538 -16.42159598 9.09599182 -9.875 4.6875 C-2.66872454 0 -2.66872454 0 0 0 Z " fill="#592403" transform="translate(249,155)"/>
<path d="M0 0 C6.73778771 3.2661507 11.80412876 7.74173019 14.75 14.6875 C17.60744784 24.23361067 17.66880013 35.68777699 13.4375 44.75 C10.12872716 50.40314033 6.31134392 54.89621869 0 57 C-6.13617038 57.50296479 -9.13724652 57.12276926 -14 53 C-22.0127384 44.73806161 -24.43945989 36.42069253 -24.265625 24.9765625 C-23.88171953 20.67456301 -22.62758772 16.97198868 -21 13 C-20.67 12.01 -20.34 11.02 -20 10 C-19.34 10 -18.68 10 -18 10 C-17.814375 9.278125 -17.62875 8.55625 -17.4375 7.8125 C-13.92990931 0.94982256 -7.44980852 -1.76606479 0 0 Z " fill="#FCFCF8" transform="translate(334,178)"/>
<path d="M0 0 C0.99 0 1.98 0 3 0 C2.73162784 1.66706474 2.46006033 3.33361489 2.1875 5 C2.0136377 6.06694092 1.83977539 7.13388184 1.66064453 8.2331543 C1.23477414 10.66137094 0.76467917 13.08244553 0.2409668 15.49145508 C-1.88003549 25.44505787 -2.46790004 34.99111712 -2.39111328 45.15551758 C-2.37494581 47.69601541 -2.39110836 50.23493873 -2.41015625 52.77539062 C-2.4225853 62.2458694 -1.70505386 70.85035825 1 80 C1.21027832 80.74628662 1.42055664 81.49257324 1.63720703 82.26147461 C2.4897557 85.22185606 3.41565403 88.15917422 4.328125 91.1015625 C5 94 5 94 4 97 C3.7525 96.360625 3.505 95.72125 3.25 95.0625 C2.8375 94.381875 2.425 93.70125 2 93 C1.38253906 92.87109375 0.76507813 92.7421875 0.12890625 92.609375 C-6.35953414 90.75213335 -11.19625355 79.95467451 -14.3984375 74.453125 C-16.25504157 70.45010549 -17.21967507 66.52113984 -18.25 62.25 C-19.77310329 56.05167343 -21.4272477 52.80965459 -26.8125 48.9375 C-28.51368897 47.91049424 -30.23453906 46.91210329 -32 46 C-29.81923781 41.2999098 -26.69430216 38.21547764 -22.484375 35.1953125 C-19.65780747 32.69762233 -18.83010855 30.89458712 -17.5625 27.375 C-13.56124195 17.15506845 -7.79811998 7.81297354 0 0 Z " fill="#5E2C0F" transform="translate(212,183)"/>
<path d="M0 0 C0 0.66 0 1.32 0 2 C0.7425 2.226875 1.485 2.45375 2.25 2.6875 C7.20582634 5.05278076 9.30279782 9.10546462 11.36279297 14.0534668 C13.75392607 21.35787455 13.0530354 30.88906536 9.75 37.75 C7.15900596 42.10491937 4.92993473 45.35668842 0 47 C-5.14160203 47.61947012 -8.85026963 47.6813217 -13.375 45 C-19.91834039 37.5218967 -21.3828731 30.14524341 -21.2734375 20.39453125 C-20.71836286 13.50367611 -18.63707657 8.08627397 -13.4375 3.4375 C-9.08685639 0.01706081 -5.45574899 -0.10293866 0 0 Z " fill="#FDFCF9" transform="translate(374,182)"/>
<path d="M0 0 C-0.89775965 5.11285069 -3.98679051 7.02200003 -8 10 C-14.9740205 14.87965521 -22.13220848 18.76959061 -30 22 C-30.84949219 22.35964844 -31.69898438 22.71929687 -32.57421875 23.08984375 C-46.23340416 28.50043289 -60.46964189 29.51229122 -75 30 C-74.6803125 30.61488281 -74.360625 31.22976563 -74.03125 31.86328125 C-73 34 -73 34 -72.5 36.1875 C-72.335 36.785625 -72.17 37.38375 -72 38 C-71.34 38.33 -70.68 38.66 -70 39 C-71.2739589 41.03833424 -72.61061923 43.03852126 -74 45 C-74.66 45 -75.32 45 -76 45 C-76.33 45.66 -76.66 46.32 -77 47 C-80.44327041 43.95403002 -82.05662598 41.12934091 -83.75 36.875 C-84.17796875 35.82054687 -84.6059375 34.76609375 -85.046875 33.6796875 C-86 31 -86 31 -86 29 C-87.65 29.33 -89.3 29.66 -91 30 C-91 29.34 -91 28.68 -91 28 C-91.66 28 -92.32 28 -93 28 C-92.84402344 28.66386719 -92.68804687 29.32773437 -92.52734375 30.01171875 C-92.23537109 31.33623047 -92.23537109 31.33623047 -91.9375 32.6875 C-91.74027344 33.55761719 -91.54304688 34.42773438 -91.33984375 35.32421875 C-90.97967721 38.16001276 -91.29090031 40.24789982 -92 43 C-92.33 43 -92.66 43 -93 43 C-93.85298376 39.32612505 -94.10789471 35.9552607 -94.0625 32.1875 C-94.05347656 31.21167969 -94.04445313 30.23585938 -94.03515625 29.23046875 C-94.02355469 28.49441406 -94.01195312 27.75835937 -94 27 C-92.02 27 -90.04 27 -88 27 C-88.66 25.88625 -89.32 24.7725 -90 23.625 C-92 20.25 -92 20.25 -92 18 C-90.46182617 18.03927612 -90.46182617 18.03927612 -88.89257812 18.0793457 C-58.06939157 18.79549928 -31.09412251 16.81229896 -3.86303711 0.953125 C-2 0 -2 0 0 0 Z " fill="#E8AF13" transform="translate(388,296)"/>
<path d="M0 0 C2.38312703 1.89428046 3.6500559 3.30011179 5 6 C5.57538625 13.01971231 5.57538625 13.01971231 3.3125 16.875 C0.80643379 19.17787165 -0.68899388 20.22999858 -4 21 C-5.0725 20.67 -6.145 20.34 -7.25 20 C-10.9844362 19.61291672 -10.9844362 19.61291672 -13.23828125 21.765625 C-24.03816887 33.30970656 -30.32842552 47.11420022 -30 63 C-29.56423206 70.35292766 -28.8052784 77.67955613 -28 85 C-28.99 85 -29.98 85 -31 85 C-31.20496094 84.00097656 -31.40992188 83.00195312 -31.62109375 81.97265625 C-31.89050781 80.68230469 -32.15992188 79.39195312 -32.4375 78.0625 C-32.70433594 76.77472656 -32.97117187 75.48695313 -33.24609375 74.16015625 C-33.67181616 71.15361121 -33.67181616 71.15361121 -35 70 C-36.10291289 59.03932774 -35.73892228 48.05360147 -31 38 C-30.57589844 37.07058594 -30.15179688 36.14117187 -29.71484375 35.18359375 C-26.60255362 28.95034416 -22.6947758 24.08707184 -17.85546875 19.09375 C-15.79789006 17.04789237 -15.79789006 17.04789237 -15 14 C-15.66 13.67 -16.32 13.34 -17 13 C-15.40969163 3.20704846 -15.40969163 3.20704846 -11 0 C-7.16499319 -1.2783356 -3.85497292 -1.02592021 0 0 Z " fill="#4A3225" transform="translate(357,61)"/>
<path d="M0 0 C3.17891994 3.10323137 4.22049811 5.72200007 4.5 10.0625 C3.95015913 14.39249689 3.09137898 15.99954393 0 19 C-2.52475462 20.26237731 -4.31200466 20.09856404 -7.125 20.0625 C-8.03507812 20.05347656 -8.94515625 20.04445313 -9.8828125 20.03515625 C-10.93082031 20.01775391 -10.93082031 20.01775391 -12 20 C-12 19.34 -12 18.68 -12 18 C-14.97192866 16.2486849 -16.6269928 15.73340745 -20 16.5 C-31.10321276 19.39012787 -40.25595478 24.93909549 -46.6796875 34.5 C-50.65154161 41.29760106 -52.95319873 48.4268353 -55 56 C-55.66 56 -56.32 56 -57 56 C-57 57.32 -57 58.64 -57 60 C-57.99 60 -58.98 60 -60 60 C-60.18939643 47.22926914 -54.48820296 34.64521394 -46.15234375 25.109375 C-39.08350465 18.1816561 -29.62393707 12.31674215 -19.73828125 10.609375 C-17.8309364 10.16719153 -17.8309364 10.16719153 -17.12890625 8.2578125 C-16.94199219 7.55398437 -16.75507813 6.85015625 -16.5625 6.125 C-15.60189735 3.3089175 -15.08922986 2.08922986 -12.9375 -0.0625 C-8.4676092 -1.48906089 -4.49346766 -1.34879805 0 0 Z " fill="#3F2517" transform="translate(397,79)"/>
<path d="M0 0 C4.46667505 0.86558348 7.02712901 3.38715758 10.25 6.4375 C10.82919189 6.98245117 11.40838379 7.52740234 12.00512695 8.08886719 C22.74840936 18.36570246 31.91672941 31.3766238 38 45 C38 45.99 38 46.98 38 48 C38.99 48.495 38.99 48.495 40 49 C37.03 50.32 34.06 51.64 31 53 C31 52.34 31 51.68 31 51 C30.34 51 29.68 51 29 51 C27.02931888 48.66550083 25.18894071 46.32769542 23.375 43.875 C22.83665527 43.15014404 22.29831055 42.42528809 21.74365234 41.6784668 C12.42934054 28.92868504 5.2561633 14.89246267 0 0 Z " fill="#F5ACAC" transform="translate(223,99)"/>
<path d="M0 0 C1.68029297 0.74056641 1.68029297 0.74056641 3.39453125 1.49609375 C4.86715695 2.14329868 6.33981489 2.79043027 7.8125 3.4375 C8.55048828 3.76298828 9.28847656 4.08847656 10.04882812 4.42382812 C10.76103516 4.73642578 11.47324219 5.04902344 12.20703125 5.37109375 C13.18893433 5.8031311 13.18893433 5.8031311 14.19067383 6.24389648 C15.76534587 6.90193984 17.38094108 7.46031369 19 8 C19.33 7.34 19.66 6.68 20 6 C21.98 10.62 23.96 15.24 26 20 C25.34 20 24.68 20 24 20 C23.87882812 20.78503906 23.75765625 21.57007813 23.6328125 22.37890625 C21.11335578 38.17396184 21.11335578 38.17396184 18.0625 40.4375 C16 41 16 41 13 41 C11.39540232 34.18045986 12.81900944 29.42164388 15.08984375 22.85546875 C16.1518439 20.02311635 16.1518439 20.02311635 16 17 C14.68 16.67 13.36 16.34 12 16 C10.8745809 17.60387267 9.74968028 19.20810916 8.625 20.8125 C7.99851562 21.70582031 7.37203125 22.59914063 6.7265625 23.51953125 C5.46449761 25.33267878 4.22541192 27.16188211 3 29 C0.5 29.3125 0.5 29.3125 -2 29 C-4 27 -4 27 -4.375 24.70703125 C-3.87382861 21.08920029 -2.35380318 19.44586311 0 16.6875 C0.7425 15.80449219 1.485 14.92148437 2.25 14.01171875 C2.8275 13.34785156 3.405 12.68398438 4 12 C3.34 11.01 2.68 10.02 2 9 C1.62633887 7.00714063 1.29259485 5.00636471 1 3 C0.67 2.01 0.34 1.02 0 0 Z " fill="#E0A711" transform="translate(250,299)"/>
<path d="M0 0 C5.00109223 3.85798544 5.00109223 3.85798544 5.65625 6.7734375 C5.71554617 11.11688167 5.66193313 13.06810119 2.9375 16.625 C-1.6333792 20.0531594 -4.86771709 21.19062998 -10.55859375 21.078125 C-14.42653262 20.40777164 -16.13194107 18.49881791 -18.8125 15.6875 C-21.17336122 12.14620816 -21.38519578 10.85999782 -20.8125 6.6875 C-15.81145336 -0.74262643 -8.4157033 -3.92732821 0 0 Z " fill="#F8A18B" transform="translate(307.8125,224.3125)"/>
<path d="M0 0 C3.60819412 0.75273085 7.21059858 1.53025756 10.8125 2.3125 C12.34874023 2.63250977 12.34874023 2.63250977 13.91601562 2.95898438 C14.89892578 3.17490234 15.88183594 3.39082031 16.89453125 3.61328125 C17.80050049 3.80704346 18.70646973 4.00080566 19.63989258 4.20043945 C24.05995595 5.69787481 25.85254529 9.01186982 28 13 C28 13.66 28 14.32 28 15 C26.02 15 24.04 15 22 15 C22.33 20.94 22.66 26.88 23 33 C20.69 33.66 18.38 34.32 16 35 C13.28513066 31.02389214 13.77559247 26.86098023 13.875 22.25 C13.88402344 21.45722656 13.89304687 20.66445313 13.90234375 19.84765625 C13.92582988 17.89830719 13.96169863 15.94911425 14 14 C13.01 14.33 12.02 14.66 11 15 C11 14.34 11 13.68 11 13 C9.9275 13.020625 8.855 13.04125 7.75 13.0625 C4 12 4 12 2.64453125 10.03515625 C1.08143893 6.55346685 0 3.84594958 0 0 Z " fill="#5E361F" transform="translate(272,308)"/>
<path d="M0 0 C-3.75 3 -3.75 3 -6 3 C-3.96849275 8.33186289 -1.53584726 12.31955919 2.1875 16.625 C2.6721875 17.19186523 3.156875 17.75873047 3.65625 18.34277344 C8.25665347 23.56526313 13.64574688 28.50794353 20.92602539 29.17700195 C33.13617188 29.52154909 43.49398695 29.73279668 53 21 C54.85798276 18.0038231 54.85798276 18.0038231 56.3125 14.75 C56.82425781 13.67234375 57.33601563 12.5946875 57.86328125 11.484375 C58.23839844 10.66453125 58.61351562 9.8446875 59 9 C59.78347427 11.28937287 60.12854612 12.58765077 59.3984375 14.9296875 C54.40470056 24.42159971 49.96505738 28.04833932 40 32 C39.20980469 32.36867188 38.41960937 32.73734375 37.60546875 33.1171875 C29.72529101 35.78723273 19.65885863 34.83777504 12.20703125 31.328125 C3.354495 26.00093505 -3.2096399 18.02798634 -8 9 C-8.66 9 -9.32 9 -10 9 C-10.66 11.31 -11.32 13.62 -12 16 C-12.66 16 -13.32 16 -14 16 C-14.78028239 7.07010156 -14.78028239 7.07010156 -11.8125 3 C-7.76375272 0.12089082 -4.90085849 -1.81513277 0 0 Z " fill="#D1170C" transform="translate(322,247)"/>
<path d="M0 0 C2.90383227 1.35168524 3.87422699 2.42669583 6 5 C6.625 8 6.625 8 6 11 C4.20006226 13.69990662 2.916227 15.5418865 0 17 C-5.06037384 17.62694897 -8.79361251 17.79621574 -13.125 14.9375 C-15.50177019 11.21389337 -15.77533825 9.34189423 -15 5 C-11.26921188 -0.8449014 -6.40364783 -1.26643115 0 0 Z " fill="#F8A08D" transform="translate(398,222)"/>
<path d="M0 0 C0 0.66 0 1.32 0 2 C0.99 2 1.98 2 3 2 C2.67 2.99 2.34 3.98 2 5 C-0.08570904 5.44449537 -2.17284062 5.88307627 -4.265625 6.29296875 C-14.56087437 8.95502609 -22.78568276 14.72752783 -28.6796875 23.5 C-32.65154161 30.29760106 -34.95319873 37.4268353 -37 45 C-37.66 45 -38.32 45 -39 45 C-39 46.32 -39 47.64 -39 49 C-39.99 49 -40.98 49 -42 49 C-42.18939643 36.22926914 -36.48820296 23.64521394 -28.15234375 14.109375 C-20.87566668 6.97796734 -10.46546321 0 0 0 Z " fill="#806E66" transform="translate(379,90)"/>
<path d="M0 0 C0.99 1.32 1.98 2.64 3 4 C2.61328125 4.58265625 2.2265625 5.1653125 1.828125 5.765625 C-9.51762341 23.62675369 -8.22320007 40.78983245 -6 61 C-6.99 61 -7.98 61 -9 61 C-9.20496094 60.00097656 -9.40992188 59.00195312 -9.62109375 57.97265625 C-9.89050781 56.68230469 -10.15992188 55.39195312 -10.4375 54.0625 C-10.83775391 52.13083984 -10.83775391 52.13083984 -11.24609375 50.16015625 C-11.67181616 47.15361121 -11.67181616 47.15361121 -13 46 C-14.61017994 29.99814284 -11.74132773 16.58985085 -3 3 C-1.31640625 1.19140625 -1.31640625 1.19140625 0 0 Z " fill="#85746B" transform="translate(335,85)"/>
<path d="M0 0 C3.50627369 0.87656842 4.53638 2.67956999 6.5 5.625 C8.23892818 9.10285636 7.95219787 12.82271649 7.5 16.625 C5.875 20.1875 5.875 20.1875 3.5 22.625 C0.5 23.375 0.5 23.375 -2.5 22.625 C-6.18920052 19.03288371 -6.7931723 16.16424994 -7 11.0625 C-6.85607272 7.41965093 -6.54997141 5.71939044 -4.8125 2.4375 C-2.5 0.625 -2.5 0.625 0 0 Z " fill="#319CDA" transform="translate(362.5,197.375)"/>
<path d="M0 0 C3.30163627 0.52526032 4.7971181 1.73029816 6.796875 4.39453125 C8.7512458 8.58361293 8.4888467 12.95782586 7.75 17.4375 C6.36093456 20.7001886 4.25090385 22.93659615 1.75 25.4375 C-1.0882362 25.21917414 -2.78422087 24.79084968 -5.0625 23.0625 C-6.25 21.4375 -6.25 21.4375 -6.25 18.4375 C-4.93 18.4375 -3.61 18.4375 -2.25 18.4375 C-2.58 16.4575 -2.91 14.4775 -3.25 12.4375 C-2.59 12.4375 -1.93 12.4375 -1.25 12.4375 C-1.25 9.1375 -1.25 5.8375 -1.25 2.4375 C-1.91 2.1075 -2.57 1.7775 -3.25 1.4375 C-2.25 0.4375 -2.25 0.4375 0 0 Z " fill="#0E8CD6" transform="translate(330.25,199.5625)"/>
<path d="M0 0 C1.1446875 0.3403125 1.1446875 0.3403125 2.3125 0.6875 C2.10334836 2.50014755 1.88789742 4.31220058 1.6484375 6.12109375 C1.40167176 8.00626925 1.18154991 9.89498161 0.9765625 11.78515625 C0.83992188 12.84605469 0.70328125 13.90695312 0.5625 15 C0.44390625 16.00675781 0.3253125 17.01351563 0.203125 18.05078125 C-0.6875 20.6875 -0.6875 20.6875 -3.078125 22.54296875 C-5.6875 23.6875 -5.6875 23.6875 -8.6875 23.6875 C-10.46791085 16.1207539 -8.67854002 9.78636446 -5.6875 2.6875 C-3.31363144 -0.38530598 -3.31363144 -0.38530598 0 0 Z " fill="#5C4538" transform="translate(271.6875,316.3125)"/>
<path d="M0 0 C3.2826932 1.49076434 5.93077441 3.38620321 8.75 5.625 C9.94882813 6.57246094 9.94882813 6.57246094 11.171875 7.5390625 C11.77515625 8.02117187 12.3784375 8.50328125 13 9 C13.66 8.01 14.32 7.02 15 6 C15.67184618 8.10251861 16.33730968 10.20707763 17 12.3125 C17.37125 13.48425781 17.7425 14.65601563 18.125 15.86328125 C19 19 19 19 19 22 C15.0213977 20.37238997 12.19690056 17.60077598 9.125 14.6875 C8.10806948 13.73168934 7.08984174 12.77725695 6.0703125 11.82421875 C5.31862793 11.11918213 5.31862793 11.11918213 4.55175781 10.39990234 C2.97437318 8.97688103 1.34092906 7.65556967 -0.3203125 6.33203125 C-3 4 -3 4 -4 1 C-3.34 1 -2.68 1 -2 1 C-1.34 1.99 -0.68 2.98 0 4 C0 2.68 0 1.36 0 0 Z " fill="#E0AD26" transform="translate(216,275)"/>
<path d="M0 0 C1.91015625 0.296875 1.91015625 0.296875 4.91015625 1.421875 C4.32386496 5.6416294 2.88716967 8.61789887 0.66015625 12.234375 C0.0775 13.21019531 -0.50515625 14.18601562 -1.10546875 15.19140625 C-3.08984375 17.421875 -3.08984375 17.421875 -5.69921875 17.87109375 C-8.08984375 17.421875 -8.08984375 17.421875 -10.08984375 15.421875 C-10.58893262 12.1357393 -10.2099732 10.63842003 -8.5859375 7.7109375 C-3.11309722 0.62843832 -3.11309722 0.62843832 0 0 Z " fill="#564033" transform="translate(256.08984375,310.578125)"/>
<path d="M0 0 C2.31 0 4.62 0 7 0 C7.99 2.97 8.98 5.94 10 9 C11.65 9.33 13.3 9.66 15 10 C13.6875 12.9375 13.6875 12.9375 12 16 C11.01 16.33 10.02 16.66 9 17 C8.67 17.66 8.34 18.32 8 19 C3.73989001 15.50062394 1.70524283 11.1423729 0 6 C-0.25 2.4375 -0.25 2.4375 0 0 Z " fill="#584132" transform="translate(303,324)"/>
<path d="M0 0 C0 0.66 0 1.32 0 2 C0.99 2 1.98 2 3 2 C2.67 2.99 2.34 3.98 2 5 C-0.07643663 5.44251928 -2.15510537 5.87639425 -4.2421875 6.265625 C-9.51055574 7.66853326 -14.21471964 10.43938976 -19 13 C-19.99 13.495 -19.99 13.495 -21 14 C-21 13.34 -21 12.68 -21 12 C-23.71224618 13.61268692 -26.37352812 15.24901874 -29 17 C-25.62804235 9.0156236 -16.92615194 5.19045283 -9.3828125 1.9453125 C-5.93478656 0.57740713 -3.78737052 0 0 0 Z " fill="#998B83" transform="translate(379,90)"/>
<path d="M0 0 C2.7836829 0.38187708 4.30211391 1.19206355 6.1640625 3.296875 C6.1640625 3.956875 6.1640625 4.616875 6.1640625 5.296875 C5.47441406 5.37164062 4.78476562 5.44640625 4.07421875 5.5234375 C-3.25496188 6.54891956 -8.03158293 8.77982283 -13.8359375 13.296875 C-15.16899354 14.29724461 -16.50224621 15.29735245 -17.8359375 16.296875 C-17.31200443 12.23285361 -16.23863973 10.16054196 -13.4609375 7.171875 C-12.85507812 6.50929687 -12.24921875 5.84671875 -11.625 5.1640625 C-11.03460938 4.54789063 -10.44421875 3.93171875 -9.8359375 3.296875 C-9.35769531 2.7296875 -8.87945312 2.1625 -8.38671875 1.578125 C-5.79115844 -0.56631777 -3.23282643 -0.10530379 0 0 Z " fill="#572702" transform="translate(332.8359375,160.703125)"/>
<path d="M0 0 C2.97 0.495 2.97 0.495 6 1 C6.33 6.94 6.66 12.88 7 19 C5.02 19 3.04 19 1 19 C0 18 0 18 -0.11352539 16.23413086 C-0.10828857 15.48526611 -0.10305176 14.73640137 -0.09765625 13.96484375 C-0.09443359 13.15595703 -0.09121094 12.34707031 -0.08789062 11.51367188 C-0.07951172 10.66353516 -0.07113281 9.81339844 -0.0625 8.9375 C-0.05798828 8.08349609 -0.05347656 7.22949219 -0.04882812 6.34960938 C-0.03700373 4.23304337 -0.01906769 2.11651315 0 0 Z " fill="#301405" transform="translate(288,322)"/>
<path d="M0 0 C2 0 2 0 4.125 1.5 C6.42642279 4.56856372 6.53297235 6.34925232 6.31640625 10.09375 C5.85494661 12.87390192 5.21252984 14.22997613 3 16 C-0.0625 16.375 -0.0625 16.375 -3 16 C-3.66 15.34 -4.32 14.68 -5 14 C-5 13.01 -5 12.02 -5 11 C-4.34 10.67 -3.68 10.34 -3 10 C-3.33 8.35 -3.66 6.7 -4 5 C-3.01 4.67 -2.02 4.34 -1 4 C-0.26676204 1.98491642 -0.26676204 1.98491642 0 0 Z " fill="#0A89D2" transform="translate(363,204)"/>
<path d="M0 0 C0.33 0 0.66 0 1 0 C0.99476318 0.55872803 0.98952637 1.11745605 0.98413086 1.69311523 C0.96308281 4.27456494 0.95025266 6.85599649 0.9375 9.4375 C0.92912109 10.31599609 0.92074219 11.19449219 0.91210938 12.09960938 C0.88129993 20.44896872 1.60195261 28.0065087 4 36 C4 36.99 4 37.98 4 39 C3.01 39 2.02 39 1 39 C0.79503906 38.00097656 0.59007812 37.00195312 0.37890625 35.97265625 C0.10949219 34.68230469 -0.15992188 33.39195312 -0.4375 32.0625 C-0.83775391 30.13083984 -0.83775391 30.13083984 -1.24609375 28.16015625 C-1.67181616 25.15361121 -1.67181616 25.15361121 -3 24 C-3.08669432 22.5112814 -3.10703494 21.018555 -3.09765625 19.52734375 C-3.09443359 18.62822266 -3.09121094 17.72910156 -3.08789062 16.80273438 C-3.07951172 15.85720703 -3.07113281 14.91167969 -3.0625 13.9375 C-3.05798828 12.98810547 -3.05347656 12.03871094 -3.04882812 11.06054688 C-3.0370011 8.70696935 -3.02052025 6.35351523 -3 4 C-2.34 4 -1.68 4 -1 4 C-0.67 2.68 -0.34 1.36 0 0 Z " fill="#553D2C" transform="translate(325,107)"/>
<path d="M0 0 C0.78375 0.04125 1.5675 0.0825 2.375 0.125 C0.395 1.115 0.395 1.115 -1.625 2.125 C-0.635 3.61 -0.635 3.61 0.375 5.125 C0.71457563 9.19990752 0.68832486 10.65501271 -1.625 14.125 C-1.79213569 16.75031524 -1.79213569 16.75031524 -1.625 19.125 C-3.275 19.455 -4.925 19.785 -6.625 20.125 C-8.39266555 14.82200335 -8.3260976 9.877744 -6.25 4.6875 C-3.37949102 0.16092814 -3.37949102 0.16092814 0 0 Z " fill="#439ACE" transform="translate(329.625,198.875)"/>
<path d="M0 0 C0.78347427 2.28937287 1.12854612 3.58765077 0.3984375 5.9296875 C-4.59529944 15.42159971 -9.03494262 19.04833932 -19 23 C-20.16595703 23.56074219 -20.16595703 23.56074219 -21.35546875 24.1328125 C-24.85520816 25.28043753 -28.17625931 25.21547106 -31.8125 25.125 C-32.85180664 25.11146484 -32.85180664 25.11146484 -33.91210938 25.09765625 C-35.60822395 25.07426157 -37.30415871 25.03839641 -39 25 C-39 24.67 -39 24.34 -39 24 C-37.02 23.67 -35.04 23.34 -33 23 C-33.99 22.34 -34.98 21.68 -36 21 C-35.03320312 20.97421875 -34.06640625 20.9484375 -33.0703125 20.921875 C-22.74464511 20.47204395 -13.91111021 19.32698329 -6 12 C-4.14201724 9.0038231 -4.14201724 9.0038231 -2.6875 5.75 C-1.91986328 4.13351562 -1.91986328 4.13351562 -1.13671875 2.484375 C-0.76160156 1.66453125 -0.38648438 0.8446875 0 0 Z " fill="#DA4010" transform="translate(381,256)"/>
<path d="M0 0 C-3.75 3 -3.75 3 -6 3 C-6.33 4.98 -6.66 6.96 -7 9 C-7.99 9 -8.98 9 -10 9 C-10.66 11.31 -11.32 13.62 -12 16 C-12.66 16 -13.32 16 -14 16 C-14.78028239 7.07010156 -14.78028239 7.07010156 -11.8125 3 C-7.76375272 0.12089082 -4.90085849 -1.81513277 0 0 Z " fill="#D4270D" transform="translate(322,247)"/>
<path d="M0 0 C2.16796875 1.42578125 2.16796875 1.42578125 4.1875 3.3125 C4.86167969 3.92738281 5.53585937 4.54226562 6.23046875 5.17578125 C8.78782403 7.81217179 10 9.25604304 10 13 C9.34 13 8.68 13 8 13 C7.42765625 12.39671875 6.8553125 11.7934375 6.265625 11.171875 C3.59926511 8.61584724 1.17738543 7.59115082 -2.25 6.25 C-3.32765625 5.82203125 -4.4053125 5.3940625 -5.515625 4.953125 C-6.74539063 4.48132813 -6.74539063 4.48132813 -8 4 C-8 3.34 -8 2.68 -8 2 C-4.7406994 -0.17286707 -3.77885638 -0.4874094 0 0 Z " fill="#5D2C03" transform="translate(371,167)"/>
<path d="M0 0 C2.31 0 4.62 0 7 0 C8.32 5.28 9.64 10.56 11 16 C10.01 16.33 9.02 16.66 8 17 C7.34 16.67 6.68 16.34 6 16 C6 15.34 6 14.68 6 14 C6.66 14 7.32 14 8 14 C6.68 11.36 5.36 8.72 4 6 C3.01 7.485 3.01 7.485 2 9 C0.4375 7.875 0.4375 7.875 -1 6 C-0.6875 2.8125 -0.6875 2.8125 0 0 Z M1 1 C2 4 2 4 2 4 Z M4 1 C4.66 1.66 5.32 2.32 6 3 C6 2.34 6 1.68 6 1 C5.34 1 4.68 1 4 1 Z " fill="#F0F1F1" transform="translate(291,0)"/>
<path d="M0 0 C0.1875 2.375 0.1875 2.375 0 5 C-0.99 5.66 -1.98 6.32 -3 7 C-2.67 8.32 -2.34 9.64 -2 11 C-3.98 11.99 -3.98 11.99 -6 13 C-7.32229189 10.35541621 -7.09677194 8.32238699 -7.0625 5.375 C-7.05347656 4.37210938 -7.04445313 3.36921875 -7.03515625 2.3359375 C-7.02355469 1.56507813 -7.01195312 0.79421875 -7 0 C-3.86650268 -1.04449911 -3.01031744 -0.93423645 0 0 Z " fill="#41A1D9" transform="translate(363,203)"/>
<path d="M0 0 C3.29652382 0.52444697 4.78369592 1.73998846 6.8125 4.37109375 C8.68344671 8.49497213 8.10403461 13.0160011 7.75 17.4375 C7.42 17.4375 7.09 17.4375 6.75 17.4375 C6.42 15.1275 6.09 12.8175 5.75 10.4375 C5.09 10.4375 4.43 10.4375 3.75 10.4375 C-1.25 4.96130952 -1.25 4.96130952 -1.25 2.4375 C-1.91 2.1075 -2.57 1.7775 -3.25 1.4375 C-2.25 0.4375 -2.25 0.4375 0 0 Z " fill="#1990D6" transform="translate(330.25,199.5625)"/>
<path d="M0 0 C1.32 0.66 2.64 1.32 4 2 C4.25 9.625 4.25 9.625 2 13 C0.68 13 -0.64 13 -2 13 C-2.33 10.69 -2.66 8.38 -3 6 C-2.34 6 -1.68 6 -1 6 C-0.67 4.02 -0.34 2.04 0 0 Z " fill="#0B2434" transform="translate(330,206)"/>
<path d="M0 0 C2.50063365 0.46308031 4.02373057 1.01675099 6.125 2.5 C10.266633 4.660852 14.38848575 4.7403225 19 5 C16.80704203 7.47613272 16.2478556 7.96112069 12.8125 8.5 C8.05091445 7.87552976 4.63056084 6.14353439 1 3 C0.67 2.01 0.34 1.02 0 0 Z " fill="#E9AF12" transform="translate(317,230)"/>
<path d="M0 0 C0.99 1.32 1.98 2.64 3 4 C0.62176166 8.84455959 0.62176166 8.84455959 -1 11 C-3.75 11.9375 -3.75 11.9375 -6 12 C-5.59791618 6.37082652 -3.71069698 3.99613521 0 0 Z " fill="#7E6C63" transform="translate(335,85)"/>
<path d="M0 0 C-0.28256092 1.93884889 -0.5763793 3.87605961 -0.875 5.8125 C-1.03742188 6.89144531 -1.19984375 7.97039062 -1.3671875 9.08203125 C-2 12 -2 12 -4 15 C-4 12.03 -4 9.06 -4 6 C-5.65 7.32 -7.3 8.64 -9 10 C-9 6.47899095 -8.41671132 5.89968686 -6.1875 3.3125 C-5.40439453 2.37857422 -5.40439453 2.37857422 -4.60546875 1.42578125 C-3 0 -3 0 0 0 Z " fill="#956C43" transform="translate(215,183)"/>
<path d="M0 0 C0.66 0 1.32 0 2 0 C3.60725635 3.21451269 3.05748185 6.43612536 3 10 C1.35 10.33 -0.3 10.66 -2 11 C-2.66 9.02 -3.32 7.04 -4 5 C-3.01 4.67 -2.02 4.34 -1 4 C-0.26676204 1.98491642 -0.26676204 1.98491642 0 0 Z " fill="#0E2331" transform="translate(363,204)"/>
<path d="M0 0 C0.33 0 0.66 0 1 0 C2.65768817 4.30998925 3.36179005 8.29021083 3.75390625 12.8515625 C3.93787196 15.026917 3.93787196 15.026917 4.65234375 17.1484375 C4.76707031 17.75945312 4.88179688 18.37046875 5 19 C4.34 19.66 3.68 20.32 3 21 C-0.32270836 13.93924474 -0.31806054 7.7276932 0 0 Z " fill="#E8EBDC" transform="translate(353,199)"/>
<path d="M0 0 C6.93 0 13.86 0 21 0 C21 0.33 21 0.66 21 1 C15.06 1.33 9.12 1.66 3 2 C3.66 3.32 4.32 4.64 5 6 C5.33 6.66 5.66 7.32 6 8 C5.01 8.33 4.02 8.66 3 9 C0 3.375 0 3.375 0 0 Z " fill="#E4D5B4" transform="translate(310,324)"/>
<path d="M0 0 C0 0.99 0 1.98 0 3 C-0.33 2.67 -0.66 2.34 -1 2 C-4.07517749 1.49805987 -6.93240986 1.43656508 -10 2 C-13.17360417 4.34312831 -14.75780739 7.27342217 -16 11 C-16.66 10.67 -17.32 10.34 -18 10 C-15.73809524 2.73809524 -15.73809524 2.73809524 -12.9375 -0.0625 C-8.53113335 -1.46878723 -4.50819029 -0.72656271 0 0 Z " fill="#8E7F77" transform="translate(397,79)"/>
<path d="M0 0 C4.95 0 9.9 0 15 0 C14 3 14 3 12 4 C9.44842345 4.0716735 6.92527029 4.09308442 4.375 4.0625 C3.66859375 4.05798828 2.9621875 4.05347656 2.234375 4.04882812 C0.48954725 4.03703875 -1.255237 4.01910324 -3 4 C-3 3.67 -3 3.34 -3 3 C-1.02 2.67 0.96 2.34 3 2 C2.01 1.34 1.02 0.68 0 0 Z " fill="#DD4B12" transform="translate(345,277)"/>
<path d="M0 0 C-0.53675903 3.85103301 -2.11600923 5.31797587 -5.0625 7.75 C-6.16271484 8.67039062 -6.16271484 8.67039062 -7.28515625 9.609375 C-7.85105469 10.06828125 -8.41695313 10.5271875 -9 11 C-9.33 10.01 -9.66 9.02 -10 8 C-8.671875 5.95703125 -8.671875 5.95703125 -6.75 3.8125 C-6.12609375 3.09707031 -5.5021875 2.38164063 -4.859375 1.64453125 C-3 0 -3 0 0 0 Z " fill="#655045" transform="translate(358,102)"/>
<path d="M0 0 C0.33 0 0.66 0 1 0 C1 3.3 1 6.6 1 10 C0.34 10 -0.32 10 -1 10 C-1 11.32 -1 12.64 -1 14 C-1.99 14 -2.98 14 -4 14 C-3.71572583 12.41532272 -3.42225182 10.8322943 -3.125 9.25 C-2.96257812 8.36828125 -2.80015625 7.4865625 -2.6328125 6.578125 C-2.03203736 4.13052256 -1.22002883 2.19400143 0 0 Z " fill="#4C3329" transform="translate(341,125)"/>
<path d="M0 0 C0.33 0.66 0.66 1.32 1 2 C1.66 2 2.32 2 3 2 C2.67 2.99 2.34 3.98 2 5 C2 4.34 2 3.68 2 3 C0.35 3.33 -1.3 3.66 -3 4 C-3 3.34 -3 2.68 -3 2 C-3.66 2 -4.32 2 -5 2 C-4.84402344 2.66386719 -4.68804687 3.32773437 -4.52734375 4.01171875 C-4.33269531 4.89472656 -4.13804687 5.77773438 -3.9375 6.6875 C-3.74027344 7.55761719 -3.54304688 8.42773438 -3.33984375 9.32421875 C-2.97967721 12.16001276 -3.29090031 14.24789982 -4 17 C-4.33 17 -4.66 17 -5 17 C-5.85298376 13.32612505 -6.10789471 9.9552607 -6.0625 6.1875 C-6.05347656 5.21167969 -6.04445313 4.23585938 -6.03515625 3.23046875 C-6.02355469 2.49441406 -6.01195312 1.75835937 -6 1 C-4.02 0.67 -2.04 0.34 0 0 Z " fill="#C5B9B1" transform="translate(300,322)"/>
<path d="M0 0 C2.0625 0.4375 2.0625 0.4375 4 1 C4 2.98 4 4.96 4 7 C2.0625 7.5625 2.0625 7.5625 0 8 C-1 7 -1 7 -1.125 4 C-1 1 -1 1 0 0 Z " fill="#E5F0F6" transform="translate(326,203)"/>
<path d="M0 0 C0 1.32 0 2.64 0 4 C-1.98 4.99 -1.98 4.99 -4 6 C-4 5.34 -4 4.68 -4 4 C-6.71224618 5.61268692 -9.37352812 7.24901874 -12 9 C-9.94195865 3.44328837 -5.88351438 0 0 0 Z " fill="#8E8078" transform="translate(362,98)"/>
<path d="M0 0 C0 0.99 0 1.98 0 3 C0.33 3.33 0.66 3.66 1 4 C1 7.57575896 -0.08840607 9.05295935 -2 12 C-2.33 11.01 -2.66 10.02 -3 9 C-3.66 9 -4.32 9 -5 9 C-3.7508258 5.54074837 -2.32472205 2.85306797 0 0 Z " fill="#94867F" transform="translate(349,107)"/>
<path d="M0 0 C-1.55575978 0.84584998 -3.1199612 1.67618399 -4.6875 2.5 C-5.99267578 3.19609375 -5.99267578 3.19609375 -7.32421875 3.90625 C-10.11788829 5.04818792 -12.01629113 5.21504208 -15 5 C-14.01 4.67 -13.02 4.34 -12 4 C-12 3.34 -12 2.68 -12 2 C-10.75579353 1.4654744 -9.50429064 0.94791389 -8.25 0.4375 C-7.55390625 0.14746094 -6.8578125 -0.14257812 -6.140625 -0.44140625 C-3.69987216 -1.07831803 -2.3596345 -0.80248831 0 0 Z " fill="#D31F0C" transform="translate(372,274)"/>
<path d="M0 0 C0.54527344 0.42152344 1.09054687 0.84304687 1.65234375 1.27734375 C7.24204014 5.33823429 11.09216823 6.78070375 18 7 C18 7.33 18 7.66 18 8 C7.26046922 8.68794147 7.26046922 8.68794147 3.375 6.25 C0.91963989 3.92386937 0.59720756 3.15856443 0 0 Z " fill="#E9AE0F" transform="translate(357,223)"/>
<path d="M0 0 C3.76833726 3.20308667 5.81790294 7.63580589 8 12 C7.01 12.33 6.02 12.66 5 13 C4.15615325 11.58957044 3.32530504 10.17135868 2.5 8.75 C2.0359375 7.96109375 1.571875 7.1721875 1.09375 6.359375 C0 4 0 4 0 0 Z " fill="#ECB625" transform="translate(311,218)"/>
<path d="M0 0 C0.66 0.33 1.32 0.66 2 1 C-0.97 4.96 -0.97 4.96 -4 9 C-3.67 9.66 -3.34 10.32 -3 11 C-4.32 10.34 -5.64 9.68 -7 9 C-5.44499019 5.18315774 -2.96404505 2.80804268 0 0 Z " fill="#9C8274" transform="translate(187,220)"/>
<path d="M0 0 C1.625 1.6875 1.625 1.6875 3 4 C2.1875 6.75 2.1875 6.75 1 9 C-0.32 8.01 -1.64 7.02 -3 6 C-1.125 1.125 -1.125 1.125 0 0 Z " fill="#735A18" transform="translate(384,184)"/>
<path d="M0 0 C1.65 0.33 3.3 0.66 5 1 C3.7874262 4.72433382 2.49140021 8.37802806 1 12 C0.01879536 8.94736336 0.01879536 7.05263664 1 4 C0.34 4 -0.32 4 -1 4 C-0.67 2.68 -0.34 1.36 0 0 Z " fill="#8F8179" transform="translate(328,95)"/>
<path d="M0 0 C1.32 0.33 2.64 0.66 4 1 C4 2.65 4 4.3 4 6 C2.68 6.33 1.36 6.66 0 7 C0 4.69 0 2.38 0 0 Z " fill="#E4EBEF" transform="translate(359,202)"/>
<path d="M0 0 C0.33 0 0.66 0 1 0 C1 2.97 1 5.94 1 9 C-0.65 9.33 -2.3 9.66 -4 10 C-3.34 7.36 -2.68 4.72 -2 2 C-1.34 2 -0.68 2 0 2 C0 1.34 0 0.68 0 0 Z " fill="#017EC7" transform="translate(336,208)"/>
<path d="M0 0 C1.32 0.99 2.64 1.98 4 3 C3.34 4.98 2.68 6.96 2 9 C1.01 8.34 0.02 7.68 -1 7 C-0.67 4.69 -0.34 2.38 0 0 Z " fill="#755B15" transform="translate(310,186)"/>
<path d="M0 0 C-1.55603771 3.81936528 -3.95604931 6.26044438 -7 9 C-7.66 9 -8.32 9 -9 9 C-7.45665977 5.21180126 -4.44676575 0 0 0 Z " fill="#FCD9D9" transform="translate(177,97)"/>
<path d="M0 0 C0.33 0 0.66 0 1 0 C3.58108108 7.74324324 3.58108108 7.74324324 2 12 C1.01 12.66 0.02 13.32 -1 14 C-1 13.01 -1 12.02 -1 11 C-0.34 11 0.32 11 1 11 C0.84402344 10.37351562 0.68804687 9.74703125 0.52734375 9.1015625 C0.33269531 8.28429688 0.13804687 7.46703125 -0.0625 6.625 C-0.35833984 5.40683594 -0.35833984 5.40683594 -0.66015625 4.1640625 C-1 2 -1 2 0 0 Z " fill="#ECECEC" transform="translate(281,29)"/>
<path d="M0 0 C-1.27192363 2.54384726 -2.19948469 2.69368156 -4.8125 3.6875 C-5.49957031 3.95949219 -6.18664062 4.23148437 -6.89453125 4.51171875 C-9.29376496 5.06812731 -10.6894364 4.77364938 -13 4 C-4.738041 -0.59225513 -4.738041 -0.59225513 0 0 Z " fill="#32170A" transform="translate(378,92)"/>
<path d="M0 0 C0.78375 0.04125 1.5675 0.0825 2.375 0.125 C0.395 1.115 0.395 1.115 -1.625 2.125 C-1.295 2.785 -0.965 3.445 -0.625 4.125 C-1.615 4.455 -2.605 4.785 -3.625 5.125 C-3.955 6.775 -4.285 8.425 -4.625 10.125 C-5.285 9.135 -5.945 8.145 -6.625 7.125 C-5.46424766 3.15909618 -4.48604523 0.2136212 0 0 Z " fill="#3AA1DD" transform="translate(329.625,198.875)"/>
<path d="M0 0 C0.66 0.33 1.32 0.66 2 1 C1.3125 3.4375 1.3125 3.4375 0 6 C-2.625 6.8125 -2.625 6.8125 -5 7 C-5 6.34 -5 5.68 -5 5 C-4.34 5 -3.68 5 -3 5 C-3 4.01 -3 3.02 -3 2 C-2.01 1.34 -1.02 0.68 0 0 Z " fill="#5A4338" transform="translate(334,90)"/>
<path d="M0 0 C1.32 0.66 2.64 1.32 4 2 C3.67 3.32 3.34 4.64 3 6 C2.67 5.67 2.34 5.34 2 5 C1.34 5.99 0.68 6.98 0 8 C-0.79953138 4.71303767 -1.09658936 3.28976808 0 0 Z " fill="#F9F9F9" transform="translate(293,1)"/>
<path d="M0 0 C0.66 0.33 1.32 0.66 2 1 C1.61479436 3.53910197 1.29902057 4.72751123 -0.62890625 6.484375 C-1.26699219 6.90203125 -1.90507812 7.3196875 -2.5625 7.75 C-3.20316406 8.17796875 -3.84382813 8.6059375 -4.50390625 9.046875 C-5.24447266 9.51867187 -5.24447266 9.51867187 -6 10 C-4.69063102 7.07909997 -3.24380538 5.24380538 -1 3 C-0.67 2.01 -0.34 1.02 0 0 Z " fill="#ADA19C" transform="translate(342,75)"/>
<path d="M0 0 C0.8971875 0.309375 0.8971875 0.309375 1.8125 0.625 C0.69875 1.2746875 0.69875 1.2746875 -0.4375 1.9375 C-2.80583926 3.39079909 -4.99674065 4.92107606 -7.1875 6.625 C-4.6484375 -0.796875 -4.6484375 -0.796875 0 0 Z " fill="#F7A47C" transform="translate(390.1875,222.375)"/>
<path d="M0 0 C0.99 0.33 1.98 0.66 3 1 C2.625 3.4375 2.625 3.4375 2 6 C1.01 6.495 1.01 6.495 0 7 C0 4.69 0 2.38 0 0 Z " fill="#0079C0" transform="translate(366,207)"/>
<path d="M0 0 C1.70884005 1.62339805 3.37446717 3.29319053 5 5 C5 5.66 5 6.32 5 7 C3.0625 6.3125 3.0625 6.3125 1 5 C0.25 2.375 0.25 2.375 0 0 Z " fill="#33270A" transform="translate(311,180)"/>
<path d="M0 0 C1.65 1.65 3.3 3.3 5 5 C2 6 2 6 -0.1875 5.0625 C-0.785625 4.711875 -1.38375 4.36125 -2 4 C-2 3.01 -2 2.02 -2 1 C-1.34 0.67 -0.68 0.34 0 0 Z " fill="#C29722" transform="translate(311,183)"/>
<path d="M0 0 C1.0625 1.875 1.0625 1.875 2 4 C1.67 4.66 1.34 5.32 1 6 C-0.0625 4.125 -0.0625 4.125 -1 2 C-0.67 1.34 -0.34 0.68 0 0 Z " fill="#F2F2F2" transform="translate(277,19)"/>
<path d="M0 0 C0.66 1.32 1.32 2.64 2 4 C1.01 3.01 0.02 2.02 -1 1 C-0.67 0.67 -0.34 0.34 0 0 Z " fill="#EAEAEA" transform="translate(279,25)"/>
<path d="M0 0 C0.66 0 1.32 0 2 0 C1.67 0.99 1.34 1.98 1 3 C0.67 2.01 0.34 1.02 0 0 Z " fill="#DEDEDE" transform="translate(297,330)"/>
<path d="" fill="#FFFFFF" transform="translate(0,0)"/>
<path d="" fill="#FFFFFF" transform="translate(0,0)"/>
<path d="" fill="#FFFFFF" transform="translate(0,0)"/>
<path d="" fill="#FFFFFF" transform="translate(0,0)"/>
</svg>
